<svg xmlns="http://www.w3.org/2000/svg" viewBox="0 0 684.72 546.29" width="652.72" height="514.29" style="background-color: rgb(248, 249, 250);"><defs><style>@import url('https://fonts.googleapis.com/css2?family=Caveat+Brush&amp;family=Source+Code+Pro&amp;family=Source+Sans+Pro&amp;family=Crimson+Pro&amp;display=block');</style></defs><g id="f7da9168-434e-4611-1016-752edf41ec88_svg" class="tl-centered-g" transform="translate(102.65, 16.00) rotate(0.00, 240.82, 73.99)"><path d="M 226.70,-0.49 Q 226.70,-0.49 229.35,-0.73 231.99,-0.96 235.30,-1.14 238.61,-1.33 240.75,-1.41 242.90,-1.50 245.37,-1.55 247.85,-1.61 250.64,-1.61 253.43,-1.61 256.55,-1.56 259.66,-1.51 263.08,-1.43 266.50,-1.35 270.23,-1.22 273.95,-1.10 277.97,-0.92 281.98,-0.74 286.28,-0.50 290.58,-0.26 295.14,0.05 299.70,0.37 304.50,0.78 309.31,1.18 314.34,1.68 319.37,2.18 324.59,2.78 329.82,3.38 335.22,4.09 340.62,4.79 346.15,5.61 351.69,6.43 357.32,7.38 362.95,8.33 368.64,9.41 374.34,10.50 380.04,11.72 385.75,12.95 391.42,14.33 397.09,15.70 402.67,17.23 408.25,18.77 413.69,20.46 419.12,22.15 424.35,24.00 429.59,25.85 434.55,27.86 439.52,29.87 444.16,32.05 448.80,34.22 453.05,36.55 457.29,38.88 461.08,41.36 464.87,43.85 468.15,46.48 471.42,49.11 474.11,51.88 476.79,54.65 478.84,57.55 480.89,60.46 482.22,63.49 483.56,66.52 484.13,69.65 484.69,72.79 484.42,76.00 484.15,79.21 483.01,82.44 481.86,85.67 479.82,88.87 477.79,92.08 474.86,95.23 471.93,98.39 468.10,101.46 464.28,104.54 459.56,107.52 454.85,110.50 449.26,113.36 443.67,116.23 437.22,118.94 430.78,121.66 423.51,124.20 416.25,126.75 408.21,129.10 400.17,131.44 391.41,133.57 382.65,135.69 373.25,137.57 363.84,139.45 353.87,141.07 343.89,142.68 333.43,144.00 322.96,145.33 312.11,146.35 301.26,147.38 290.11,148.09 278.97,148.80 267.64,149.18 256.32,149.57 244.91,149.63 233.51,149.69 222.14,149.42 210.77,149.15 199.54,148.56 188.31,147.96 177.33,147.05 166.35,146.13 155.72,144.91 145.09,143.69 134.91,142.18 124.74,140.66 115.10,138.87 105.46,137.08 96.45,135.03 87.43,132.99 79.11,130.71 70.79,128.43 63.23,125.94 55.67,123.45 48.92,120.79 42.17,118.12 36.27,115.30 30.37,112.47 25.35,109.52 20.32,106.57 16.19,103.52 12.06,100.47 8.83,97.34 5.60,94.21 3.27,91.03 0.93,87.84 -0.50,84.62 -1.95,81.39 -2.51,78.16 -3.07,74.92 -2.77,71.72 -2.47,68.52 -1.35,65.40 -0.23,62.28 1.64,59.28 3.52,56.28 6.08,53.42 8.65,50.56 11.83,47.84 15.02,45.13 18.75,42.57 22.49,40.00 26.71,37.60 30.94,35.19 35.58,32.94 40.23,30.70 45.24,28.62 50.24,26.53 55.54,24.62 60.84,22.70 66.38,20.95 71.91,19.20 77.61,17.61 83.31,16.03 89.12,14.60 94.94,13.17 100.81,11.90 106.68,10.63 112.56,9.51 118.43,8.39 124.27,7.41 130.10,6.43 135.85,5.58 141.60,4.74 147.23,4.02 152.86,3.30 158.32,2.70 163.79,2.10 169.07,1.61 174.34,1.12 179.40,0.73 184.47,0.34 189.28,0.05 194.10,-0.24 198.66,-0.46 203.22,-0.67 207.51,-0.82 211.79,-0.97 215.78,-1.05 219.77,-1.14 223.46,-1.17 227.16,-1.21 230.54,-1.21 233.92,-1.20 236.98,-1.17 240.04,-1.13 242.78,-1.09 245.53,-1.05 247.94,-1.00 250.36,-0.94 252.45,-0.88 254.54,-0.81 256.30,-0.74 258.06,-0.66 261.36,-0.46 264.67,-0.26 264.67,-0.25 264.67,-0.25 264.67,-0.24 264.67,-0.24 261.36,-0.21 258.05,-0.18 256.29,-0.17 254.53,-0.16 252.44,-0.16 250.35,-0.16 247.94,-0.15 245.52,-0.14 242.79,-0.11 240.05,-0.08 236.99,-0.02 233.93,0.04 230.56,0.13 227.19,0.22 223.51,0.35 219.83,0.47 215.85,0.64 211.87,0.81 207.60,1.03 203.33,1.24 198.78,1.52 194.24,1.79 189.44,2.14 184.64,2.48 179.60,2.90 174.55,3.33 169.30,3.84 164.04,4.35 158.59,4.95 153.15,5.56 147.54,6.28 141.94,7.01 136.21,7.85 130.48,8.69 124.67,9.67 118.86,10.64 113.01,11.76 107.17,12.87 101.32,14.14 95.48,15.40 89.70,16.82 83.93,18.23 78.26,19.81 72.60,21.39 67.11,23.12 61.62,24.86 56.37,26.75 51.12,28.65 46.18,30.71 41.23,32.76 36.65,34.97 32.07,37.18 27.93,39.54 23.78,41.89 20.14,44.38 16.50,46.88 13.43,49.49 10.35,52.10 7.90,54.80 5.45,57.51 3.68,60.30 1.91,63.08 0.85,65.92 -0.19,68.77 -0.50,71.67 -0.81,74.56 -0.33,77.52 0.14,80.48 1.47,83.49 2.79,86.50 5.00,89.53 7.20,92.57 10.31,95.60 13.43,98.63 17.46,101.61 21.48,104.60 26.42,107.50 31.36,110.41 37.19,113.20 43.01,115.99 49.70,118.63 56.39,121.28 63.89,123.75 71.40,126.22 79.67,128.48 87.94,130.75 96.91,132.79 105.88,134.83 115.48,136.61 125.07,138.39 135.21,139.90 145.35,141.41 155.95,142.63 166.54,143.85 177.48,144.76 188.43,145.67 199.62,146.27 210.82,146.86 222.16,147.13 233.50,147.40 244.87,147.34 256.24,147.28 267.53,146.90 278.83,146.51 289.93,145.80 301.04,145.10 311.86,144.08 322.68,143.06 333.10,141.74 343.52,140.42 353.46,138.81 363.39,137.21 372.75,135.34 382.11,133.47 390.82,131.35 399.53,129.24 407.51,126.91 415.49,124.58 422.69,122.06 429.89,119.54 436.25,116.86 442.62,114.18 448.12,111.37 453.62,108.56 458.23,105.66 462.84,102.75 466.55,99.79 470.25,96.82 473.06,93.83 475.86,90.84 477.79,87.86 479.71,84.88 480.79,81.93 481.87,78.98 482.15,76.07 482.43,73.17 481.94,70.29 481.46,67.42 480.23,64.59 479.00,61.77 477.07,59.00 475.14,56.24 472.56,53.57 469.98,50.89 466.80,48.33 463.62,45.76 459.90,43.33 456.19,40.89 452.01,38.59 447.83,36.30 443.24,34.15 438.66,32.00 433.74,30.01 428.82,28.01 423.63,26.18 418.44,24.34 413.04,22.66 407.64,20.98 402.09,19.46 396.54,17.94 390.90,16.58 385.26,15.21 379.58,13.99 373.90,12.77 368.24,11.70 362.57,10.62 356.96,9.68 351.34,8.74 345.83,7.93 340.31,7.12 334.94,6.43 329.56,5.74 324.34,5.16 319.13,4.58 314.12,4.10 309.11,3.63 304.31,3.23 299.52,2.84 294.98,2.51 290.43,2.19 286.15,1.93 281.87,1.67 277.87,1.47 273.86,1.26 270.15,1.11 266.44,0.96 263.02,0.85 259.61,0.74 256.51,0.66 253.41,0.59 250.62,0.52 247.83,0.44 245.37,0.36 242.90,0.28 240.76,0.19 238.62,0.11 235.31,-0.02 232.00,-0.16 229.35,-0.31 Z" fill="#1d1d1d" stroke="#1d1d1d" stroke-width="2" pointer-events="none" stroke-linecap="round" stroke-linejoin="round"/></g><g id="779c1d11-9816-4e9b-0d7f-db61ac13268a_svg" class="tl-centered-g" transform="translate(150.06, 55.31) rotate(0.00, 195.26, 34.68)"><path d="M 380.67,24.22 Q 380.67,24.22 381.94,24.77 383.21,25.33 384.48,26.20 385.76,27.07 387.08,28.39 388.40,29.71 389.31,31.63 390.21,33.54 389.93,36.13 389.65,38.72 388.81,40.16 387.96,41.61 386.55,43.07 385.13,44.54 383.09,45.98 381.04,47.43 378.28,48.80 375.52,50.17 372.03,51.54 368.54,52.91 364.24,54.29 359.94,55.66 354.77,57.00 349.60,58.34 343.51,59.62 337.42,60.91 330.39,62.14 323.36,63.37 315.40,64.51 307.43,65.65 298.55,66.68 289.68,67.70 279.94,68.57 270.21,69.44 259.70,70.12 249.20,70.80 238.04,71.26 226.88,71.73 215.21,71.95 203.55,72.17 191.55,72.12 179.56,72.07 167.44,71.74 155.32,71.40 143.29,70.77 131.27,70.14 119.58,69.20 107.89,68.26 96.79,67.03 85.69,65.79 75.42,64.27 65.15,62.75 55.95,60.96 46.76,59.16 38.86,57.13 30.97,55.09 24.58,52.84 18.18,50.60 13.44,48.17 8.71,45.74 5.73,43.13 2.75,40.51 1.64,37.64 0.53,34.77 1.55,31.83 2.56,28.89 5.69,26.15 8.82,23.42 13.79,20.92 18.75,18.43 25.44,16.15 32.12,13.86 40.40,11.79 48.67,9.72 58.35,7.91 68.04,6.09 78.91,4.56 89.78,3.02 101.58,1.80 113.39,0.57 125.87,-0.32 138.36,-1.22 151.24,-1.78 164.12,-2.34 177.13,-2.57 190.14,-2.80 203.01,-2.70 215.89,-2.61 228.39,-2.20 240.90,-1.79 252.81,-1.09 264.71,-0.39 275.84,0.55 286.97,1.51 297.16,2.70 307.36,3.88 316.49,5.26 325.63,6.64 333.63,8.18 341.64,9.72 348.45,11.37 355.27,13.03 360.90,14.77 366.52,16.52 370.96,18.31 375.41,20.11 378.73,21.94 382.05,23.76 384.34,25.59 386.62,27.41 388.01,29.24 389.39,31.08 389.88,33.03 390.36,34.98 389.92,36.96 389.47,38.93 388.20,40.73 386.93,42.53 385.06,44.09 383.19,45.65 380.89,46.98 378.59,48.31 375.98,49.46 373.38,50.61 370.57,51.61 367.76,52.61 364.85,53.49 361.94,54.37 359.01,55.14 356.08,55.92 353.22,56.60 350.35,57.28 347.61,57.87 344.87,58.46 342.32,58.97 339.78,59.47 337.47,59.88 335.16,60.29 333.13,60.62 331.10,60.94 329.40,61.18 327.70,61.43 325.36,61.70 323.03,61.98 323.03,61.98 323.03,61.97 323.03,61.97 323.03,61.96 325.32,61.45 327.61,60.94 329.29,60.57 330.96,60.20 332.96,59.76 334.96,59.32 337.24,58.80 339.52,58.28 342.03,57.68 344.54,57.07 347.23,56.37 349.92,55.66 352.72,54.85 355.52,54.03 358.36,53.10 361.19,52.17 363.97,51.12 366.76,50.07 369.39,48.92 372.03,47.77 374.41,46.55 376.80,45.32 378.83,44.06 380.87,42.79 382.45,41.53 384.03,40.27 385.10,39.05 386.17,37.83 386.62,35.18 387.06,32.54 386.08,30.89 385.09,29.24 383.02,27.50 380.94,25.76 377.75,24.00 374.55,22.23 370.19,20.47 365.84,18.71 360.28,16.98 354.73,15.26 347.97,13.61 341.20,11.97 333.25,10.44 325.29,8.91 316.19,7.54 307.09,6.16 296.93,4.98 286.77,3.80 275.68,2.84 264.58,1.89 252.70,1.19 240.82,0.50 228.35,0.09 215.87,-0.31 203.03,-0.40 190.18,-0.50 177.20,-0.27 164.22,-0.04 151.37,0.52 138.52,1.08 126.08,1.98 113.63,2.88 101.87,4.10 90.10,5.33 79.29,6.86 68.47,8.39 58.86,10.21 49.25,12.02 41.07,14.07 32.90,16.12 26.37,18.37 19.84,20.61 15.13,22.96 10.42,25.32 7.64,27.63 4.86,29.95 3.85,32.16 2.83,34.37 3.59,36.64 4.35,38.91 7.06,41.31 9.77,43.71 14.36,46.07 18.95,48.43 25.25,50.65 31.55,52.87 39.37,54.88 47.20,56.90 56.34,58.69 65.48,60.47 75.71,61.98 85.94,63.50 97.01,64.73 108.08,65.96 119.73,66.89 131.39,67.81 143.39,68.44 155.38,69.07 167.47,69.39 179.57,69.72 191.54,69.76 203.50,69.79 215.14,69.56 226.78,69.33 237.91,68.84 249.04,68.36 259.51,67.65 269.98,66.94 279.68,66.03 289.37,65.13 298.20,64.05 307.03,62.98 314.94,61.76 322.85,60.55 329.80,59.23 336.75,57.90 342.73,56.50 348.72,55.09 353.76,53.66 358.80,52.23 362.94,50.80 367.08,49.37 370.36,47.96 373.64,46.55 376.11,45.19 378.59,43.83 380.41,42.64 382.23,41.45 383.47,40.41 384.71,39.36 385.90,37.60 387.09,35.84 387.12,34.23 387.15,32.63 386.42,31.12 385.69,29.61 384.16,27.90 382.62,26.19 381.64,25.21 Z" fill="#1d1d1d" stroke="#1d1d1d" stroke-width="2" pointer-events="none" stroke-linecap="round" stroke-linejoin="round"/></g><g id="0981600b-1d83-49e8-1a9f-a150651b41af_svg" class="tl-centered-g" transform="translate(16.00, 89.15) rotate(0.00, 42.06, 202.55)"><g opacity="1"><path d="M 83.68,2.58 Q 83.68,2.58 82.74,3.21 81.80,3.83 79.97,5.50 78.13,7.17 77.20,8.24 76.26,9.32 75.74,10.57 75.21,11.83 74.57,12.98 73.92,14.14 73.07,15.61 72.22,17.08 71.50,18.36 70.79,19.64 69.92,20.86 69.04,22.07 67.94,23.32 66.84,24.57 65.98,25.70 65.11,26.83 63.88,28.40 62.65,29.97 61.62,31.24 60.59,32.52 59.56,33.89 58.53,35.26 57.48,36.84 56.43,38.41 55.00,40.30 53.57,42.19 52.75,43.40 51.93,44.62 50.87,46.08 49.81,47.53 48.83,49.08 47.86,50.63 46.88,52.34 45.91,54.06 45.26,55.43 44.61,56.80 43.93,58.13 43.25,59.46 42.70,60.67 42.15,61.89 41.27,63.94 40.38,65.99 39.52,67.54 38.66,69.10 37.59,71.29 36.53,73.48 35.78,75.08 35.04,76.69 34.34,78.26 33.65,79.84 32.98,81.40 32.31,82.96 31.79,84.47 31.28,85.97 30.64,87.35 30.00,88.73 28.90,90.97 27.81,93.21 26.97,94.99 26.12,96.76 25.58,98.37 25.04,99.98 24.37,102.36 23.70,104.73 23.23,106.14 22.77,107.55 22.26,109.02 21.76,110.49 21.28,111.87 20.79,113.25 20.29,114.68 19.79,116.11 19.26,117.60 18.73,119.09 18.20,121.17 17.67,123.26 17.09,125.32 16.52,127.39 16.10,129.23 15.69,131.08 15.34,132.64 14.99,134.21 14.60,136.07 14.21,137.93 13.61,140.16 13.01,142.40 12.64,143.82 12.27,145.25 11.92,146.77 11.56,148.28 11.11,150.62 10.66,152.96 10.39,154.35 10.11,155.74 9.78,157.36 9.45,158.98 9.09,160.74 8.73,162.50 8.37,164.34 8.01,166.18 7.49,168.27 6.97,170.36 6.78,171.84 6.59,173.31 6.33,175.01 6.07,176.71 5.82,178.36 5.56,180.00 5.21,182.77 4.86,185.53 4.51,188.30 4.16,191.07 3.84,193.48 3.51,195.88 3.32,198.05 3.14,200.21 3.02,201.82 2.91,203.44 2.87,204.98 2.83,206.52 2.66,208.29 2.48,210.06 2.37,211.86 2.26,213.65 2.03,216.07 1.80,218.50 1.67,221.18 1.53,223.87 1.45,226.24 1.37,228.60 1.32,230.95 1.27,233.29 1.23,235.63 1.20,237.97 1.18,240.64 1.16,243.32 1.15,245.84 1.14,248.36 1.13,251.16 1.12,253.96 1.11,256.37 1.11,258.79 1.10,260.82 1.10,262.86 1.10,264.86 1.10,266.85 1.10,268.83 1.11,270.80 1.23,272.90 1.36,275.00 1.43,277.06 1.50,279.13 1.73,280.59 1.96,282.05 2.10,283.60 2.25,285.14 2.54,286.77 2.84,288.40 3.12,290.23 3.39,292.06 3.65,293.94 3.91,295.82 4.17,297.74 4.42,299.65 4.68,301.58 4.93,303.51 5.46,305.91 5.99,308.31 6.43,310.02 6.87,311.72 7.33,313.53 7.80,315.33 8.29,317.39 8.78,319.45 9.30,321.26 9.82,323.08 10.47,325.11 11.11,327.15 11.93,328.78 12.75,330.42 13.57,332.27 14.40,334.11 15.09,335.25 15.77,336.39 16.50,337.72 17.23,339.06 17.97,340.29 18.70,341.53 19.95,343.29 21.19,345.04 22.09,346.29 22.98,347.54 23.86,348.72 24.74,349.91 26.23,351.66 27.72,353.40 29.25,355.24 30.77,357.07 31.93,358.64 33.09,360.21 34.57,361.84 36.06,363.46 37.49,364.75 38.91,366.04 40.02,367.80 41.13,369.55 42.25,371.07 43.38,372.60 44.31,373.83 45.25,375.05 46.40,376.49 47.55,377.92 48.76,379.17 49.98,380.41 51.24,381.56 52.49,382.70 53.66,383.77 54.83,384.83 56.48,386.11 58.13,387.39 59.33,388.32 60.53,389.25 61.72,389.78 62.91,390.31 64.86,391.27 66.81,392.22 68.00,392.86 69.20,393.49 71.38,394.64 73.56,395.78 74.82,396.67 76.09,397.56 77.25,398.33 78.40,399.10 79.69,399.82 80.98,400.55 82.11,401.29 83.23,402.04 84.10,402.23 84.96,402.42 85.37,402.63 85.77,402.83 86.09,403.16 86.41,403.48 86.60,403.89 86.80,404.30 86.86,404.75 86.92,405.20 86.83,405.64 86.74,406.09 86.51,406.48 86.28,406.87 85.94,407.17 85.60,407.47 85.18,407.65 84.77,407.82 84.31,407.85 83.86,407.89 83.42,407.77 82.98,407.66 82.60,407.41 82.22,407.16 81.94,406.81 81.66,406.45 81.51,406.02 81.36,405.60 81.35,405.14 81.34,404.69 81.48,404.26 81.61,403.83 81.88,403.46 82.15,403.09 82.52,402.83 82.89,402.57 83.33,402.44 83.76,402.31 84.22,402.33 84.67,402.35 85.09,402.51 85.52,402.67 85.87,402.95 86.22,403.24 86.46,403.63 86.70,404.01 86.81,404.45 86.91,404.89 86.87,405.35 86.83,405.80 86.65,406.21 86.46,406.63 86.16,406.96 85.85,407.30 85.45,407.52 85.06,407.74 84.61,407.82 84.16,407.90 83.72,407.83 83.27,407.77 83.27,407.77 83.27,407.77 80.72,406.29 78.18,404.81 77.00,403.97 75.82,403.13 74.60,402.37 73.37,401.62 72.25,400.91 71.13,400.20 69.03,399.10 66.94,398.00 65.71,397.42 64.48,396.83 62.53,395.82 60.58,394.82 59.08,393.76 57.58,392.70 56.48,391.54 55.38,390.37 53.92,388.86 52.46,387.36 51.35,386.28 50.24,385.21 48.91,384.03 47.58,382.85 46.22,381.58 44.87,380.30 43.48,378.86 42.08,377.42 41.25,376.28 40.41,375.14 38.99,373.68 37.57,372.23 36.06,370.48 34.54,368.73 33.58,367.62 32.62,366.51 31.23,364.77 29.84,363.02 28.47,361.66 27.09,360.31 25.51,358.38 23.93,356.46 22.40,354.58 20.88,352.69 19.69,350.52 18.51,348.34 17.83,346.92 17.15,345.51 16.48,344.30 15.80,343.09 15.15,341.75 14.49,340.42 13.87,339.02 13.25,337.63 12.75,336.37 12.25,335.10 11.40,333.30 10.55,331.50 9.68,329.71 8.81,327.91 8.10,325.84 7.39,323.77 6.87,321.92 6.35,320.07 5.79,318.03 5.24,316.00 4.76,314.16 4.29,312.33 3.92,310.60 3.55,308.88 2.94,306.38 2.32,303.89 2.02,301.97 1.73,300.05 1.42,298.15 1.12,296.24 0.82,294.37 0.51,292.51 0.22,290.70 -0.06,288.89 -0.34,287.08 -0.62,285.28 -0.62,283.78 -0.62,282.27 -0.65,280.74 -0.68,279.20 -0.76,277.17 -0.83,275.14 -0.97,272.97 -1.10,270.80 -1.10,268.83 -1.09,266.85 -1.09,264.86 -1.10,262.86 -1.10,260.82 -1.10,258.79 -1.10,256.37 -1.11,253.95 -1.11,251.16 -1.11,248.36 -1.12,245.83 -1.12,243.31 -1.12,240.63 -1.12,237.95 -1.12,235.61 -1.12,233.26 -1.11,230.91 -1.11,228.55 -1.08,226.16 -1.06,223.78 -1.00,221.04 -0.94,218.30 -0.83,215.89 -0.71,213.49 -0.62,211.62 -0.53,209.75 -0.35,208.04 -0.17,206.33 -0.01,204.73 0.14,203.12 0.38,201.58 0.62,200.04 0.75,197.80 0.87,195.57 1.11,193.17 1.34,190.78 1.57,188.01 1.80,185.23 1.99,182.36 2.19,179.48 2.45,177.85 2.70,176.21 2.94,174.50 3.18,172.80 3.45,171.26 3.72,169.72 4.02,167.67 4.33,165.63 4.51,163.76 4.70,161.89 4.88,160.08 5.07,158.28 5.26,156.59 5.46,154.91 5.69,153.49 5.92,152.06 6.41,149.73 6.90,147.40 7.13,145.81 7.37,144.23 7.64,142.57 7.91,140.91 8.44,138.85 8.98,136.79 9.46,134.79 9.94,132.78 10.41,131.30 10.88,129.82 11.44,127.97 12.01,126.13 12.72,124.12 13.44,122.11 14.20,119.95 14.96,117.80 15.46,116.29 15.96,114.78 16.46,113.32 16.96,111.86 17.45,110.54 17.93,109.22 18.41,107.74 18.89,106.26 19.36,104.86 19.83,103.45 20.67,101.19 21.51,98.92 22.01,97.12 22.50,95.32 23.10,93.45 23.69,91.58 24.45,89.17 25.20,86.75 25.70,85.37 26.20,84.00 26.89,82.31 27.58,80.63 28.35,79.10 29.11,77.56 29.94,76.07 30.77,74.57 31.76,72.92 32.74,71.26 33.87,69.27 35.01,67.28 35.73,65.67 36.45,64.05 37.50,62.11 38.56,60.17 39.20,58.91 39.84,57.64 40.53,56.40 41.21,55.15 41.89,53.80 42.56,52.45 43.32,50.55 44.08,48.64 44.90,46.80 45.71,44.96 46.52,43.43 47.33,41.91 48.10,40.43 48.87,38.96 50.17,36.96 51.47,34.97 52.46,33.42 53.44,31.88 54.50,30.43 55.56,28.99 56.73,27.50 57.89,26.02 58.89,24.69 59.89,23.35 61.05,21.81 62.20,20.27 63.40,18.86 64.60,17.44 65.34,16.35 66.07,15.25 66.76,14.07 67.45,12.90 68.36,11.49 69.27,10.09 70.01,8.92 70.75,7.74 71.50,6.63 72.26,5.52 73.35,4.45 74.44,3.38 75.39,2.40 76.34,1.41 77.46,0.30 78.58,-0.81 79.51,-1.46 80.43,-2.12 80.74,-2.28 81.04,-2.44 81.38,-2.52 81.71,-2.61 82.06,-2.61 82.40,-2.61 82.74,-2.52 83.07,-2.44 83.38,-2.28 83.68,-2.12 83.94,-1.89 84.20,-1.66 84.40,-1.38 84.59,-1.09 84.71,-0.77 84.83,-0.45 84.88,-0.10 84.92,0.23 84.87,0.57 84.83,0.91 84.71,1.24 84.59,1.56 84.39,1.84 84.19,2.13 83.94,2.35 Z" fill="#1d1d1d" stroke="#1d1d1d" stroke-width="1" stroke-linejoin="round" stroke-linecap="round" pointer-events="none"/></g></g><g id="6dcb9ae7-d9b1-43e5-1566-83f9158b90bc_svg" class="tl-centered-g" transform="translate(584.61, 87.84) rotate(0.00, 42.06, 202.55)"><g opacity="1"><path d="M 3.68,-2.12 Q 3.68,-2.12 4.60,-1.46 5.53,-0.81 6.65,0.30 7.77,1.41 8.72,2.40 9.67,3.38 10.76,4.45 11.85,5.52 12.61,6.63 13.36,7.74 14.10,8.92 14.84,10.09 15.75,11.49 16.66,12.90 17.35,14.07 18.04,15.25 18.77,16.35 19.51,17.44 20.71,18.86 21.91,20.27 23.06,21.81 24.22,23.35 25.22,24.69 26.22,26.02 27.38,27.50 28.55,28.99 29.61,30.43 30.67,31.88 31.65,33.42 32.64,34.97 33.94,36.96 35.24,38.96 36.01,40.43 36.78,41.91 37.59,43.43 38.40,44.96 39.21,46.80 40.03,48.64 40.79,50.55 41.55,52.45 42.22,53.80 42.90,55.15 43.58,56.40 44.27,57.64 44.91,58.91 45.55,60.17 46.61,62.11 47.66,64.05 48.38,65.67 49.10,67.28 50.24,69.27 51.37,71.26 52.35,72.92 53.34,74.57 54.17,76.07 55.00,77.56 55.76,79.10 56.53,80.63 57.22,82.31 57.91,84.00 58.41,85.37 58.91,86.75 59.66,89.17 60.42,91.58 61.01,93.45 61.61,95.32 62.10,97.12 62.60,98.92 63.44,101.19 64.28,103.45 64.75,104.86 65.22,106.26 65.70,107.74 66.18,109.22 66.66,110.54 67.15,111.86 67.65,113.32 68.15,114.78 68.65,116.29 69.15,117.80 69.91,119.95 70.67,122.11 71.39,124.12 72.10,126.13 72.67,127.97 73.23,129.82 73.70,131.30 74.17,132.78 74.65,134.79 75.13,136.79 75.67,138.85 76.20,140.91 76.47,142.57 76.74,144.23 76.98,145.81 77.21,147.40 77.70,149.73 78.19,152.06 78.42,153.49 78.65,154.91 78.85,156.59 79.04,158.28 79.23,160.08 79.41,161.89 79.60,163.76 79.78,165.63 80.09,167.67 80.39,169.72 80.66,171.26 80.93,172.80 81.17,174.50 81.41,176.21 81.66,177.85 81.92,179.48 82.12,182.36 82.31,185.23 82.54,188.01 82.77,190.78 83.00,193.17 83.24,195.57 83.36,197.80 83.49,200.04 83.73,201.58 83.97,203.12 84.13,204.73 84.29,206.33 84.47,208.04 84.65,209.75 84.74,211.62 84.83,213.49 84.95,215.89 85.06,218.30 85.12,221.04 85.18,223.78 85.20,226.16 85.23,228.55 85.23,230.91 85.24,233.26 85.24,235.61 85.24,237.95 85.24,240.63 85.24,243.31 85.24,245.83 85.23,248.36 85.23,251.16 85.23,253.95 85.22,256.37 85.22,258.79 85.22,260.82 85.22,262.86 85.21,264.86 85.21,266.85 85.22,268.83 85.22,270.80 85.09,272.97 84.95,275.14 84.88,277.17 84.80,279.20 84.77,280.74 84.74,282.27 84.74,283.78 84.74,285.28 84.46,287.08 84.18,288.89 83.89,290.70 83.60,292.51 83.29,294.37 82.99,296.24 82.69,298.15 82.38,300.05 82.09,301.97 81.79,303.89 81.17,306.38 80.56,308.88 80.19,310.60 79.82,312.33 79.35,314.16 78.87,316.00 78.32,318.03 77.76,320.07 77.24,321.92 76.72,323.77 76.01,325.84 75.30,327.91 74.43,329.71 73.56,331.50 72.71,333.30 71.86,335.10 71.36,336.37 70.86,337.63 70.24,339.02 69.62,340.42 68.96,341.75 68.31,343.09 67.63,344.30 66.96,345.51 66.28,346.92 65.60,348.34 64.42,350.52 63.23,352.69 61.71,354.58 60.18,356.46 58.60,358.38 57.02,360.31 55.64,361.66 54.27,363.02 52.88,364.77 51.49,366.51 50.53,367.62 49.57,368.73 48.05,370.48 46.54,372.23 45.12,373.68 43.70,375.14 42.86,376.28 42.03,377.42 40.63,378.86 39.24,380.30 37.89,381.58 36.53,382.85 35.20,384.03 33.87,385.21 32.76,386.28 31.65,387.36 30.19,388.86 28.73,390.37 27.63,391.54 26.53,392.70 25.03,393.76 23.53,394.82 21.58,395.82 19.63,396.83 18.40,397.42 17.17,398.00 15.08,399.10 12.98,400.20 11.86,400.91 10.74,401.62 9.51,402.37 8.29,403.13 7.11,403.97 5.93,404.81 3.39,406.29 0.84,407.77 0.39,407.83 -0.05,407.90 -0.49,407.82 -0.94,407.74 -1.33,407.52 -1.73,407.30 -2.04,406.96 -2.34,406.63 -2.53,406.21 -2.71,405.80 -2.75,405.34 -2.79,404.89 -2.69,404.45 -2.58,404.01 -2.34,403.63 -2.10,403.24 -1.75,402.95 -1.40,402.67 -0.97,402.51 -0.55,402.35 -0.10,402.33 0.35,402.31 0.78,402.44 1.22,402.57 1.59,402.83 1.96,403.09 2.23,403.46 2.50,403.83 2.63,404.26 2.77,404.69 2.76,405.14 2.75,405.60 2.60,406.03 2.45,406.45 2.17,406.81 1.89,407.17 1.51,407.41 1.13,407.66 0.69,407.77 0.25,407.89 -0.19,407.85 -0.65,407.82 -1.07,407.65 -1.48,407.47 -1.82,407.17 -2.16,406.87 -2.39,406.48 -2.62,406.09 -2.71,405.64 -2.80,405.20 -2.74,404.75 -2.68,404.30 -2.48,403.89 -2.29,403.48 -1.97,403.16 -1.65,402.83 -1.25,402.63 -0.84,402.42 -0.84,402.42 -0.84,402.42 0.01,402.23 0.88,402.04 2.00,401.29 3.13,400.55 4.42,399.82 5.71,399.10 6.86,398.33 8.02,397.56 9.29,396.67 10.55,395.78 12.73,394.64 14.91,393.49 16.11,392.86 17.30,392.22 19.25,391.27 21.20,390.31 22.39,389.78 23.58,389.25 24.78,388.32 25.98,387.39 27.63,386.11 29.28,384.83 30.45,383.77 31.62,382.70 32.87,381.56 34.13,380.41 35.35,379.17 36.56,377.92 37.71,376.49 38.86,375.05 39.80,373.83 40.73,372.60 41.86,371.07 42.98,369.55 44.09,367.80 45.20,366.04 46.62,364.75 48.05,363.46 49.54,361.84 51.02,360.21 52.18,358.64 53.34,357.07 54.86,355.24 56.39,353.40 57.88,351.66 59.37,349.91 60.25,348.72 61.13,347.54 62.02,346.29 62.92,345.04 64.16,343.29 65.41,341.53 66.14,340.29 66.88,339.06 67.61,337.72 68.34,336.39 69.02,335.25 69.71,334.11 70.54,332.27 71.36,330.42 72.18,328.78 73.00,327.15 73.64,325.11 74.29,323.08 74.81,321.26 75.33,319.45 75.82,317.39 76.31,315.33 76.78,313.53 77.24,311.72 77.68,310.02 78.12,308.31 78.65,305.91 79.18,303.51 79.43,301.58 79.69,299.65 79.94,297.74 80.20,295.82 80.46,293.94 80.72,292.06 80.99,290.23 81.27,288.40 81.57,286.77 81.86,285.14 82.01,283.60 82.15,282.05 82.38,280.59 82.61,279.13 82.68,277.06 82.75,275.00 82.88,272.90 83.00,270.80 83.01,268.83 83.01,266.85 83.01,264.86 83.01,262.86 83.01,260.82 83.00,258.79 83.00,256.37 82.99,253.96 82.98,251.16 82.97,248.36 82.96,245.84 82.95,243.32 82.93,240.64 82.91,237.97 82.88,235.63 82.84,233.29 82.79,230.95 82.74,228.60 82.66,226.24 82.58,223.87 82.44,221.18 82.31,218.50 82.08,216.07 81.85,213.65 81.74,211.86 81.63,210.06 81.45,208.29 81.28,206.52 81.24,204.98 81.20,203.44 81.09,201.82 80.97,200.21 80.79,198.05 80.60,195.88 80.27,193.48 79.95,191.07 79.60,188.30 79.25,185.53 78.90,182.77 78.55,180.00 78.29,178.36 78.04,176.71 77.78,175.01 77.52,173.31 77.33,171.84 77.14,170.36 76.62,168.27 76.10,166.18 75.74,164.34 75.38,162.50 75.02,160.74 74.66,158.98 74.33,157.36 74.00,155.74 73.72,154.35 73.45,152.96 73.00,150.62 72.55,148.28 72.19,146.77 71.84,145.25 71.47,143.82 71.10,142.40 70.50,140.16 69.90,137.93 69.51,136.07 69.12,134.21 68.77,132.64 68.42,131.08 68.01,129.23 67.59,127.39 67.02,125.32 66.44,123.26 65.91,121.17 65.38,119.09 64.85,117.60 64.32,116.11 63.82,114.68 63.32,113.25 62.83,111.87 62.35,110.49 61.85,109.02 61.34,107.55 60.88,106.14 60.41,104.73 59.74,102.36 59.07,99.98 58.53,98.37 57.99,96.76 57.14,94.99 56.30,93.21 55.21,90.97 54.11,88.73 53.47,87.35 52.83,85.97 52.32,84.47 51.80,82.96 51.13,81.40 50.46,79.84 49.77,78.26 49.07,76.69 48.33,75.08 47.58,73.48 46.52,71.29 45.45,69.10 44.59,67.54 43.73,65.99 42.84,63.94 41.96,61.89 41.41,60.67 40.86,59.46 40.18,58.13 39.50,56.80 38.85,55.43 38.20,54.06 37.23,52.34 36.25,50.63 35.28,49.08 34.30,47.53 33.24,46.08 32.18,44.62 31.36,43.40 30.54,42.19 29.11,40.30 27.68,38.41 26.63,36.84 25.58,35.26 24.55,33.89 23.52,32.52 22.49,31.24 21.46,29.97 20.23,28.40 19.00,26.83 18.13,25.70 17.27,24.57 16.17,23.32 15.07,22.07 14.19,20.86 13.32,19.64 12.61,18.36 11.89,17.08 11.04,15.61 10.19,14.14 9.54,12.98 8.90,11.83 8.37,10.57 7.85,9.32 6.91,8.24 5.98,7.17 4.14,5.50 2.31,3.83 1.37,3.21 0.43,2.58 0.17,2.35 -0.07,2.13 -0.27,1.84 -0.47,1.56 -0.59,1.24 -0.71,0.91 -0.75,0.57 -0.80,0.23 -0.76,-0.10 -0.71,-0.45 -0.59,-0.77 -0.47,-1.09 -0.27,-1.38 -0.08,-1.66 0.17,-1.89 0.43,-2.12 0.73,-2.28 1.04,-2.44 1.37,-2.52 1.71,-2.61 2.05,-2.61 2.40,-2.61 2.73,-2.52 3.07,-2.44 3.37,-2.28 Z" fill="#1d1d1d" stroke="#1d1d1d" stroke-width="1" stroke-linejoin="round" stroke-linecap="round" pointer-events="none"/></g></g><g id="3436c36a-941f-43db-3842-df2a30c2b6f6_svg" class="tl-centered-g" transform="translate(27.46, 221.84) rotate(0.00, 0.50, 0.50)"><circle r="3" fill="#1d1d1d" stroke="#1d1d1d" pointer-events="all" opacity="1"/></g><g id="78d2c2fb-56c6-4bd8-0176-b0d5bac2c22c_svg" class="tl-centered-g" transform="translate(103.99, 462.41) rotate(0.00, 238.99, 33.94)"><path d="M 146.87,64.44 Q 146.87,64.44 145.18,64.45 143.49,64.47 140.52,64.44 137.55,64.42 135.54,64.38 133.53,64.34 131.18,64.26 128.83,64.18 126.15,64.04 123.48,63.91 120.51,63.69 117.54,63.48 114.30,63.22 111.05,62.96 107.54,62.66 104.04,62.35 100.31,61.99 96.59,61.64 92.67,61.22 88.76,60.80 84.70,60.33 80.63,59.85 76.47,59.30 72.30,58.76 68.08,58.14 63.86,57.52 59.64,56.83 55.42,56.15 51.26,55.40 47.10,54.65 43.06,53.82 39.02,53.00 35.18,52.11 31.33,51.21 27.74,50.24 24.16,49.27 20.91,48.23 17.65,47.19 14.81,46.07 11.97,44.96 9.58,43.82 7.19,42.68 5.32,41.48 3.44,40.27 2.13,38.90 0.82,37.54 0.22,35.86 -0.38,34.19 -0.00,32.32 0.37,30.46 1.82,28.69 3.27,26.92 5.69,25.39 8.10,23.86 11.41,22.49 14.72,21.13 18.93,19.79 23.15,18.45 28.32,17.14 33.48,15.82 39.63,14.55 45.77,13.28 52.89,12.06 60.00,10.85 68.06,9.71 76.12,8.57 85.08,7.53 94.04,6.48 103.83,5.55 113.62,4.62 124.17,3.82 134.72,3.02 145.93,2.36 157.13,1.70 168.88,1.20 180.63,0.70 192.79,0.36 204.96,0.03 217.41,-0.11 229.85,-0.27 242.43,-0.24 255.00,-0.21 267.56,-0.00 280.11,0.20 292.49,0.60 304.87,1.00 316.91,1.58 328.95,2.17 340.50,2.93 352.05,3.69 362.96,4.62 373.88,5.55 384.02,6.64 394.16,7.73 403.39,8.96 412.63,10.20 420.85,11.56 429.07,12.92 436.19,14.40 443.30,15.87 449.23,17.44 455.17,19.01 459.86,20.66 464.56,22.31 467.99,24.02 471.43,25.73 473.65,27.50 475.87,29.26 476.89,31.26 477.92,33.26 477.50,35.42 477.08,37.59 475.15,39.59 473.22,41.60 470.09,43.28 466.97,44.96 462.83,46.50 458.69,48.04 453.59,49.49 448.49,50.94 442.49,52.30 436.50,53.65 429.71,54.90 422.92,56.15 415.44,57.29 407.96,58.43 399.90,59.45 391.84,60.47 383.32,61.37 374.79,62.27 365.92,63.05 357.04,63.82 347.93,64.47 338.81,65.12 329.56,65.65 320.31,66.18 311.02,66.59 301.73,67.00 292.50,67.29 283.26,67.59 274.16,67.78 265.07,67.97 256.18,68.06 247.29,68.15 238.68,68.14 230.06,68.14 221.78,68.06 213.49,67.97 205.58,67.82 197.66,67.66 190.15,67.44 182.64,67.22 175.57,66.95 168.49,66.67 161.87,66.35 155.24,66.03 149.07,65.67 142.91,65.31 137.21,64.92 131.51,64.52 126.27,64.10 121.03,63.68 116.25,63.25 111.46,62.81 107.13,62.37 102.79,61.92 98.88,61.48 94.97,61.04 91.48,60.60 87.98,60.17 84.88,59.75 81.78,59.33 79.05,58.95 76.33,58.57 73.96,58.22 71.59,57.87 69.56,57.55 67.52,57.23 65.81,56.94 64.10,56.65 60.19,55.87 56.27,55.09 56.27,55.08 56.27,55.08 56.27,55.08 56.27,55.07 60.23,55.54 64.20,56.02 65.92,56.24 67.63,56.45 69.67,56.71 71.71,56.96 74.08,57.25 76.46,57.54 79.19,57.86 81.92,58.17 85.02,58.48 88.13,58.80 91.63,59.14 95.13,59.47 99.04,59.82 102.95,60.17 107.29,60.53 111.63,60.90 116.41,61.26 121.18,61.63 126.42,61.99 131.65,62.36 137.34,62.72 143.04,63.08 149.19,63.42 155.35,63.76 161.96,64.07 168.58,64.38 175.65,64.65 182.71,64.93 190.21,65.14 197.71,65.36 205.61,65.52 213.51,65.68 221.79,65.76 230.06,65.84 238.67,65.84 247.27,65.84 256.14,65.75 265.02,65.66 274.10,65.47 283.19,65.28 292.41,64.98 301.63,64.69 310.90,64.27 320.18,63.86 329.41,63.33 338.65,62.79 347.74,62.14 356.84,61.48 365.69,60.69 374.54,59.91 383.04,59.00 391.53,58.08 399.56,57.04 407.58,56.00 415.02,54.84 422.46,53.68 429.19,52.40 435.91,51.11 441.82,49.72 447.73,48.33 452.69,46.84 457.66,45.36 461.56,43.80 465.46,42.24 468.18,40.68 470.89,39.12 473.05,36.54 475.21,33.96 474.71,32.52 474.21,31.08 472.30,29.43 470.39,27.77 467.09,26.12 463.80,24.47 459.19,22.85 454.58,21.23 448.71,19.67 442.84,18.12 435.77,16.65 428.70,15.19 420.51,13.83 412.32,12.47 403.12,11.24 393.91,10.01 383.80,8.92 373.68,7.84 362.79,6.91 351.90,5.98 340.37,5.22 328.84,4.46 316.81,3.88 304.79,3.30 292.43,2.90 280.07,2.51 267.54,2.30 255.00,2.09 242.44,2.06 229.88,2.04 217.45,2.20 205.03,2.36 192.88,2.70 180.73,3.04 169.00,3.55 157.27,4.05 146.09,4.72 134.90,5.39 124.38,6.21 113.86,7.03 104.09,7.98 94.33,8.94 85.40,10.01 76.48,11.08 68.47,12.26 60.46,13.44 53.40,14.71 46.35,15.98 40.30,17.32 34.24,18.66 29.20,20.06 24.16,21.46 20.16,22.90 16.15,24.33 13.20,25.77 10.25,27.21 8.29,28.50 6.34,29.78 4.75,31.66 3.17,33.54 4.16,35.72 5.14,37.91 6.74,39.16 8.34,40.41 10.58,41.61 12.81,42.81 15.59,43.90 18.36,44.99 21.56,46.01 24.76,47.03 28.31,47.99 31.86,48.94 35.67,49.82 39.49,50.70 43.50,51.51 47.52,52.32 51.66,53.05 55.80,53.79 60.00,54.45 64.21,55.12 68.41,55.71 72.62,56.30 76.77,56.84 80.93,57.38 84.98,57.87 89.02,58.35 92.93,58.79 96.83,59.22 100.54,59.61 104.26,59.99 107.75,60.33 111.24,60.67 114.48,60.97 117.72,61.27 120.68,61.53 123.64,61.79 126.30,62.05 128.96,62.32 131.29,62.57 133.63,62.82 135.63,63.06 137.63,63.29 140.57,63.64 143.52,63.98 145.20,64.20 Z" fill="#1d1d1d" stroke="#1d1d1d" stroke-width="2" pointer-events="none" stroke-linecap="round" stroke-linejoin="round"/></g></svg>